<svg xmlns="http://www.w3.org/2000/svg" viewBox="0 0 300 400"><defs>
    <radialGradient id="skin" cx=".32" cy=".2" r=".85"><stop stop-color="#eac086"/><stop offset=".55" stop-color="#93603e"/><stop offset="1" stop-color="#392b37"/></radialGradient>
    <linearGradient id="cloth" x2=".8" y2="1"><stop stop-color="#3d5b75"/><stop offset=".5" stop-color="#253648"/><stop offset="1" stop-color="#101b2d"/></linearGradient>
    <linearGradient id="fabric" x1="0" y1="0" x2="1" y2=".8"><stop stop-color="#b8876d"/><stop offset=".3" stop-color="#46647a"/><stop offset="1" stop-color="#18283d"/></linearGradient>
    <linearGradient id="hood" x1="0" y1="0" x2=".8" y2="1"><stop stop-color="#b8876d"/><stop offset=".55" stop-color="#675877"/><stop offset="1" stop-color="#283549"/></linearGradient>
    <linearGradient id="metal" x2=".75" y2="1"><stop stop-color="#dce6e9"/><stop offset=".3" stop-color="#7e98ac"/><stop offset=".48" stop-color="#e1e9eb"/><stop offset=".55" stop-color="#496477"/><stop offset="1" stop-color="#192c40"/></linearGradient>
    <linearGradient id="trim" x2="1" y2="1"><stop stop-color="#edfcff"/><stop offset=".4" stop-color="#b8876d"/><stop offset="1" stop-color="#287c9f"/></linearGradient>
    <linearGradient id="leather" x2=".8" y2="1"><stop stop-color="#c59269"/><stop offset=".5" stop-color="#855339"/><stop offset="1" stop-color="#392722"/></linearGradient>
    <linearGradient id="hair" x2=".3" y2="1"><stop stop-color="#8f5a36"/><stop offset=".6" stop-color="#492b25"/><stop offset="1" stop-color="#241b22"/></linearGradient>
    <radialGradient id="lens" cx=".3" cy=".15"><stop stop-color="#84d9ef"/><stop offset=".6" stop-color="#153e64"/><stop offset="1" stop-color="#09182b"/></radialGradient>
    </defs><path d="M85 73Q77 33 108 23Q148 9 184 23Q219 35 217 73Z" fill="url(#hood)" stroke="#382e40" stroke-width="2"/><path d="M86 57Q150 40 216 57L218 77Q150 63 84 77Z" fill="url(#fabric)" stroke="#392c3e" stroke-width="2"/><path d="M102 30Q92 45 98 55M118 22Q112 40 113 51M136 18L134 48M154 18L156 48M175 22Q183 39 182 52M194 31Q205 44 204 54" stroke="#f5ceaa" opacity=".36" fill="none" stroke-width="2"/><path d="M91 64v8m7-10v9m7-10v8m7-10v8m7-10v8m7-9v8m7-9v8m7-8v7m7-7v7m7-7v7m7-7v7m7-7v7m7-6v7m7-5v8m7-6v8m7-5v8m7-6v8" stroke="#f5ceaa" opacity=".35" stroke-width="1.5"/><rect x="178" y="58" width="19" height="13" rx="2" fill="#243a44"/><path d="M184 63l4 4 4-4" stroke="#b8f2d9" stroke-width="2" fill="none"/></svg>
