<svg xmlns="http://www.w3.org/2000/svg" viewBox="0 0 300 400"><defs>
    <radialGradient id="skin" cx=".32" cy=".2" r=".85"><stop stop-color="#eac086"/><stop offset=".55" stop-color="#93603e"/><stop offset="1" stop-color="#392b37"/></radialGradient>
    <linearGradient id="cloth" x2=".8" y2="1"><stop stop-color="#3d5b75"/><stop offset=".5" stop-color="#253648"/><stop offset="1" stop-color="#101b2d"/></linearGradient>
    <linearGradient id="metal" x2=".75" y2="1"><stop stop-color="#dce6e9"/><stop offset=".3" stop-color="#7e98ac"/><stop offset=".48" stop-color="#e1e9eb"/><stop offset=".55" stop-color="#496477"/><stop offset="1" stop-color="#192c40"/></linearGradient>
    <linearGradient id="trim" x2="1" y2="1"><stop stop-color="#edfcff"/><stop offset=".4" stop-color="#b29aff"/><stop offset="1" stop-color="#287c9f"/></linearGradient>
    <linearGradient id="leather" x2=".8" y2="1"><stop stop-color="#c59269"/><stop offset=".5" stop-color="#855339"/><stop offset="1" stop-color="#392722"/></linearGradient>
    <linearGradient id="hair" x2=".3" y2="1"><stop stop-color="#8f5a36"/><stop offset=".6" stop-color="#492b25"/><stop offset="1" stop-color="#241b22"/></linearGradient>
    <radialGradient id="lens" cx=".3" cy=".15"><stop stop-color="#84d9ef"/><stop offset=".6" stop-color="#153e64"/><stop offset="1" stop-color="#09182b"/></radialGradient>
    </defs><g stroke="#6781bc" stroke-width="2"><path d="M73 171L46 160L38 243L61 280L84 263L98 192ZM228 171L255 160L264 243L239 280L216 263L202 192Z" fill="url(#metal)"/><path d="M51 181L43 234L62 260L74 242L78 190ZM249 181L257 234L239 260L227 242L223 190Z" fill="#182441"/><path d="M60 192L51 229L64 247L70 233ZM239 192L249 229L236 247L230 233Z" fill="url(#trim)"/><path d="M53 274L62 307L72 274M230 274L239 307L249 274" fill="#abedfb"/><path d="M47 207l25 4m-28 16 25 4m160-20 25-4m-22 24 25-4" stroke="#baa7ff"/></g></svg>
