<svg xmlns="http://www.w3.org/2000/svg" viewBox="0 0 300 400"><defs>
    <radialGradient id="skin" cx=".32" cy=".2" r=".85"><stop stop-color="#eac086"/><stop offset=".55" stop-color="#93603e"/><stop offset="1" stop-color="#392b37"/></radialGradient>
    <linearGradient id="cloth" x2=".8" y2="1"><stop stop-color="#3d5b75"/><stop offset=".5" stop-color="#253648"/><stop offset="1" stop-color="#101b2d"/></linearGradient>
    <linearGradient id="metal" x2=".75" y2="1"><stop stop-color="#dce6e9"/><stop offset=".3" stop-color="#7e98ac"/><stop offset=".48" stop-color="#e1e9eb"/><stop offset=".55" stop-color="#496477"/><stop offset="1" stop-color="#192c40"/></linearGradient>
    <linearGradient id="trim" x2="1" y2="1"><stop stop-color="#edfcff"/><stop offset=".4" stop-color="#b39aff"/><stop offset="1" stop-color="#287c9f"/></linearGradient>
    <linearGradient id="leather" x2=".8" y2="1"><stop stop-color="#c59269"/><stop offset=".5" stop-color="#855339"/><stop offset="1" stop-color="#392722"/></linearGradient>
    <linearGradient id="hair" x2=".3" y2="1"><stop stop-color="#8f5a36"/><stop offset=".6" stop-color="#492b25"/><stop offset="1" stop-color="#241b22"/></linearGradient>
    <radialGradient id="lens" cx=".3" cy=".15"><stop stop-color="#84d9ef"/><stop offset=".6" stop-color="#153e64"/><stop offset="1" stop-color="#09182b"/></radialGradient>
    </defs><path d="M84 101Q72 32 150 30Q231 32 220 103" fill="none" stroke="#203347" stroke-width="13"/><path d="M84 88Q80 37 150 36Q222 37 220 89" fill="none" stroke="url(#metal)" stroke-width="5"/><rect x="75" y="85" width="23" height="43" rx="10" fill="url(#metal)" stroke="#223a51" stroke-width="2"/><rect x="207" y="85" width="23" height="43" rx="10" fill="url(#metal)" stroke="#223a51" stroke-width="2"/><path d="M84 97v17m136-17v17" stroke="#a896ff" stroke-width="5"/><path d="M219 119Q222 145 188 144" fill="none" stroke="#7b9cab" stroke-width="4"/><rect x="175" y="137" width="20" height="11" rx="5" fill="#314b66"/><circle cx="179" cy="142" r="2" fill="#94f4dc"/></svg>
