<svg xmlns="http://www.w3.org/2000/svg" viewBox="0 0 300 400"><defs>
    <radialGradient id="skin" cx=".32" cy=".2" r=".85"><stop stop-color="#eac086"/><stop offset=".55" stop-color="#93603e"/><stop offset="1" stop-color="#392b37"/></radialGradient>
    <linearGradient id="cloth" x2=".8" y2="1"><stop stop-color="#3d5b75"/><stop offset=".5" stop-color="#253648"/><stop offset="1" stop-color="#101b2d"/></linearGradient>
    <linearGradient id="metal" x2=".75" y2="1"><stop stop-color="#dce6e9"/><stop offset=".3" stop-color="#7e98ac"/><stop offset=".48" stop-color="#e1e9eb"/><stop offset=".55" stop-color="#496477"/><stop offset="1" stop-color="#192c40"/></linearGradient>
    <linearGradient id="trim" x2="1" y2="1"><stop stop-color="#edfcff"/><stop offset=".4" stop-color="#ffcf74"/><stop offset="1" stop-color="#287c9f"/></linearGradient>
    <linearGradient id="leather" x2=".8" y2="1"><stop stop-color="#c59269"/><stop offset=".5" stop-color="#855339"/><stop offset="1" stop-color="#392722"/></linearGradient>
    <linearGradient id="hair" x2=".3" y2="1"><stop stop-color="#8f5a36"/><stop offset=".6" stop-color="#492b25"/><stop offset="1" stop-color="#241b22"/></linearGradient>
    <radialGradient id="lens" cx=".3" cy=".15"><stop stop-color="#84d9ef"/><stop offset=".6" stop-color="#153e64"/><stop offset="1" stop-color="#09182b"/></radialGradient>
    </defs><g stroke="#172336" stroke-width="2" stroke-linejoin="round">
    <path d="M99 331Q119 337 140 332L139 354Q148 362 142 375L92 377Q84 369 92 358L99 351Z" fill="url(#cloth)"/>
    <path d="M162 332Q181 337 202 331L203 351L213 358Q222 369 213 377L164 375Q157 363 164 354Z" fill="url(#cloth)"/>
    <path d="M99 331Q119 338 140 332L138 342Q120 349 98 341ZM162 332Q182 338 202 331L204 341Q183 349 164 342Z" fill="#122337" stroke="#708798"/>
    <path d="M93 359Q115 353 139 361L140 368L89 370ZM164 361Q190 353 213 359L217 370L163 368Z" fill="url(#cloth)"/>
    <path d="M90 368Q113 372 141 369L141 376Q114 380 91 376ZM163 369Q189 372 216 368L214 376Q189 380 164 376Z" fill="#dbe3dc" stroke="#51606c"/>
    </g>
    <path d="M104 345l25 2m-27 4 26 2m-27 4 27 2m43-12 25-2m-24 8 26-2m-25 8 27-2" stroke="#ffcf74" stroke-width="2.4" stroke-linecap="round"/>
    <path d="M111 341l13 19m-13-19 12 1-14 15m66-16 14 19m-14-19 13 1-12 15" stroke="#e4ecef" opacity=".6" fill="none" stroke-width="1"/>
    <path d="M94 362Q112 358 134 363M170 363Q191 358 210 362" stroke="#f9f7ed" opacity=".4" fill="none"/>
    <path d="M97 372v4M105 373v4M113 374v4M121 374v4M129 373v4M169 373v4M177 374v4M185 374v4M193 373v4M201 372v4M209 371v4" stroke="#617387" stroke-width="1.5"/>
    <path d="M99 338Q117 343 138 338M165 338Q184 343 201 337" fill="none" stroke="#ffcf74" stroke-width="1.5" stroke-dasharray="2 2"/>
    <path d="M94 377Q116 381 141 377M164 377Q190 381 213 377" fill="none" stroke="#101c30" stroke-width="3"/><path d="M97 343L120 339L139 343L137 352L116 357L96 351ZM163 343L184 339L204 343L206 351L186 357L165 352Z" fill="url(#metal)" stroke="#38516b" stroke-width="2"/><path d="M99 359L122 356L140 361L138 369L91 368ZM164 361L185 356L212 359L216 368L165 369Z" fill="url(#metal)" stroke="#38516b" stroke-width="2"/></svg>
